# xmcd
#
# Track frame offsets:
#	182
#	16005
#	33432
#	51607
#	67927
#	91025
#	109555
#	125742
#	146610
#	162885
#
# Disc length: 2386 seconds
#
# Revision: 0
# Processed by: cddbd v1.4PL0 Copyright (c) Steve Scherf et al.
# Submitted via: EasyCDDAExtractor 4.6.0.1
#
DISCID=7d09500a
DTITLE=Guillermo Guido - Llevame Contigo
DYEAR=1992
DGENRE=
TTITLE0=Tu lo sabes
TTITLE1=Llevame contigo
TTITLE2=Un sueter como el tuyo
TTITLE3=Una cima tan alta
TTITLE4=No te prometo
TTITLE5=Felicidad
TTITLE6=Loco de amor
TTITLE7=Tanto nos amamos
TTITLE8=Voy por la calle
TTITLE9=Cuanto amor
EXTD=
EXTT0=
EXTT1=
EXTT2=
EXTT3=
EXTT4=
EXTT5=
EXTT6=
EXTT7=
EXTT8=
EXTT9=
PLAYORDER=
